<?xml version="1.0" encoding="UTF-8"?>
<svg xmlns="http://www.w3.org/2000/svg" width="581" height="279">
   <defs>
      <style type="text/css">
    @namespace "http://www.w3.org/2000/svg";
    .line                 {fill: none; stroke: #332200; stroke-width: 1;}
    .bold-line            {stroke: #140E00; shape-rendering: crispEdges; stroke-width: 2;}
    .thin-line            {stroke: #1F1400; shape-rendering: crispEdges}
    .filled               {fill: #332200; stroke: none;}
    text.terminal         {font-family: Daniel Black, Sans-serif;
                            font-size: 10px;
                            fill: #140E00;
                            font-weight: bold;
                          }
    text.nonterminal      {font-family: Daniel Black, Sans-serif;
                            font-size: 10px;
                            fill: #1A1100;
                            font-weight: normal;
                          }
    text.regexp           {font-family: Daniel Black, Sans-serif;
                            font-size: 10px;
                            fill: #1F1400;
                            font-weight: normal;
                          }
    rect, circle, polygon {fill: #332200; stroke: #332200;}
    rect.terminal         {fill: #FFC34D; stroke: #332200; stroke-width: 1;}
    rect.nonterminal      {fill: #FFDF9E; stroke: #332200; stroke-width: 1;}
    rect.text             {fill: none; stroke: none;}
    polygon.regexp        {fill: #FFECC7; stroke: #332200; stroke-width: 1;}
  </style>
   </defs>
   <polygon points="9 17 1 13 1 21"/>
   <polygon points="17 17 9 13 9 21"/>
   <rect x="51" y="3" width="80" height="32" rx="10"/>
   <rect x="49"
         y="1"
         width="80"
         height="32"
         class="terminal"
         rx="10"/>
   <text class="terminal" x="59" y="21">-h --help</text>
   <a xmlns:xlink="http://www.w3.org/1999/xlink"
      xlink:href="#show_help"
      xlink:title="show_help">
      <rect x="151" y="3" width="88" height="32"/>
      <rect x="149" y="1" width="88" height="32" class="nonterminal"/>
      <text class="nonterminal" x="159" y="21">show_help</text>
   </a>
   <rect x="259" y="3" width="148" height="32" rx="10"/>
   <rect x="257"
         y="1"
         width="148"
         height="32"
         class="terminal"
         rx="10"/>
   <text class="terminal" x="267" y="21">Print help message</text>
   <rect x="51" y="47" width="72" height="32" rx="10"/>
   <rect x="49"
         y="45"
         width="72"
         height="32"
         class="terminal"
         rx="10"/>
   <text class="terminal" x="59" y="65">--install</text>
   <a xmlns:xlink="http://www.w3.org/1999/xlink"
      xlink:href="#install"
      xlink:title="install">
      <rect x="143" y="47" width="58" height="32"/>
      <rect x="141" y="45" width="58" height="32" class="nonterminal"/>
      <text class="nonterminal" x="151" y="65">install</text>
   </a>
   <rect x="221" y="47" width="306" height="32" rx="10"/>
   <rect x="219"
         y="45"
         width="306"
         height="32"
         class="terminal"
         rx="10"/>
   <text class="terminal" x="229" y="65">Install the DDNS shell script to the system</text>
   <a xmlns:xlink="http://www.w3.org/1999/xlink"
      xlink:href="#init_config"
      xlink:title="init_config">
      <rect x="51" y="91" width="84" height="32"/>
      <rect x="49" y="89" width="84" height="32" class="nonterminal"/>
      <text class="nonterminal" x="59" y="109">init_config</text>
   </a>
   <rect x="175" y="91" width="162" height="32" rx="10"/>
   <rect x="173"
         y="89"
         width="162"
         height="32"
         class="terminal"
         rx="10"/>
   <text class="terminal" x="183" y="109">Invalid configuration</text>
   <rect x="175" y="135" width="92" height="32" rx="10"/>
   <rect x="173"
         y="133"
         width="92"
         height="32"
         class="terminal"
         rx="10"/>
   <text class="terminal" x="183" y="153">No records</text>
   <a xmlns:xlink="http://www.w3.org/1999/xlink"
      xlink:href="#proc_ddns_rec"
      xlink:title="proc_ddns_rec">
      <rect x="195" y="201" width="114" height="32"/>
      <rect x="193" y="199" width="114" height="32" class="nonterminal"/>
      <text class="nonterminal" x="203" y="219">proc_ddns_rec</text>
   </a>
   <a xmlns:xlink="http://www.w3.org/1999/xlink"
      xlink:href="#handle_record"
      xlink:title="handle_record">
      <rect x="349" y="201" width="112" height="32"/>
      <rect x="347" y="199" width="112" height="32" class="nonterminal"/>
      <text class="nonterminal" x="357" y="219">handle_record</text>
   </a>
   <rect x="349" y="245" width="124" height="32" rx="10"/>
   <rect x="347"
         y="243"
         width="124"
         height="32"
         class="terminal"
         rx="10"/>
   <text class="terminal" x="357" y="263">No more record</text>
   <path class="line"
         d="m17 17 h2 m20 0 h10 m80 0 h10 m0 0 h10 m88 0 h10 m0 0 h10 m148 0 h10 m0 0 h126 m-522 0 h20 m502 0 h20 m-542 0 q10 0 10 10 m522 0 q0 -10 10 -10 m-532 10 v24 m522 0 v-24 m-522 24 q0 10 10 10 m502 0 q10 0 10 -10 m-512 10 h10 m72 0 h10 m0 0 h10 m58 0 h10 m0 0 h10 m306 0 h10 m0 0 h6 m-512 -10 v20 m522 0 v-20 m-522 20 v24 m522 0 v-24 m-522 24 q0 10 10 10 m502 0 q10 0 10 -10 m-512 10 h10 m84 0 h10 m20 0 h10 m162 0 h10 m0 0 h176 m-378 0 h20 m358 0 h20 m-398 0 q10 0 10 10 m378 0 q0 -10 10 -10 m-388 10 v24 m378 0 v-24 m-378 24 q0 10 10 10 m358 0 q10 0 10 -10 m-368 10 h10 m92 0 h10 m0 0 h246 m-368 -10 v20 m378 0 v-20 m-378 20 v46 m378 0 v-46 m-378 46 q0 10 10 10 m358 0 q10 0 10 -10 m-348 10 h10 m114 0 h10 m20 0 h10 m112 0 h10 m0 0 h12 m-164 0 h20 m144 0 h20 m-184 0 q10 0 10 10 m164 0 q0 -10 10 -10 m-174 10 v24 m164 0 v-24 m-164 24 q0 10 10 10 m144 0 q10 0 10 -10 m-154 10 h10 m124 0 h10 m-318 -44 l20 0 m-1 0 q-9 0 -9 -10 l0 -12 q0 -10 10 -10 m318 32 l20 0 m-20 0 q10 0 10 -10 l0 -12 q0 -10 -10 -10 m-318 0 h10 m0 0 h308 m63 -166 h-3"/>
   <polygon points="571 17 579 13 579 21"/>
   <polygon points="571 17 563 13 563 21"/>
</svg>
