<?xml version="1.0" encoding="UTF-8"?>
<svg xmlns="http://www.w3.org/2000/svg" width="455" height="191">
   <defs>
      <style type="text/css">
    @namespace "http://www.w3.org/2000/svg";
    .line                 {fill: none; stroke: #332200; stroke-width: 1;}
    .bold-line            {stroke: #140E00; shape-rendering: crispEdges; stroke-width: 2;}
    .thin-line            {stroke: #1F1400; shape-rendering: crispEdges}
    .filled               {fill: #332200; stroke: none;}
    text.terminal         {font-family: Daniel Black, Sans-serif;
                            font-size: 10.5px;
                            fill: #140E00;
                            font-weight: bold;
                          }
    text.nonterminal      {font-family: Daniel Black, Sans-serif;
                            font-size: 10.5px;
                            fill: #1A1100;
                            font-weight: normal;
                          }
    text.regexp           {font-family: Daniel Black, Sans-serif;
                            font-size: 10.5px;
                            fill: #1F1400;
                            font-weight: normal;
                          }
    rect, circle, polygon {fill: #332200; stroke: #332200;}
    rect.terminal         {fill: #FFC34D; stroke: #332200; stroke-width: 1;}
    rect.nonterminal      {fill: #FFDF9E; stroke: #332200; stroke-width: 1;}
    rect.text             {fill: none; stroke: none;}
    polygon.regexp        {fill: #FFECC7; stroke: #332200; stroke-width: 1;}
  </style>
   </defs>
   <polygon points="9 17 1 13 1 21"/>
   <polygon points="17 17 9 13 9 21"/>
   <rect x="51" y="3" width="80" height="32" rx="10"/>
   <rect x="49"
         y="1"
         width="80"
         height="32"
         class="terminal"
         rx="10"/>
   <text class="terminal" x="59" y="21">-h --help</text>
   <a xmlns:xlink="http://www.w3.org/1999/xlink"
      xlink:href="#show_help"
      xlink:title="show_help">
      <rect x="151" y="3" width="88" height="32"/>
      <rect x="149" y="1" width="88" height="32" class="nonterminal"/>
      <text class="nonterminal" x="159" y="21">show_help</text>
   </a>
   <rect x="259" y="3" width="148" height="32" rx="10"/>
   <rect x="257"
         y="1"
         width="148"
         height="32"
         class="terminal"
         rx="10"/>
   <text class="terminal" x="267" y="21">Print help message</text>
   <a xmlns:xlink="http://www.w3.org/1999/xlink"
      xlink:href="#init_config"
      xlink:title="init_config">
      <rect x="51" y="47" width="84" height="32"/>
      <rect x="49" y="45" width="84" height="32" class="nonterminal"/>
      <text class="nonterminal" x="59" y="65">init_config</text>
   </a>
   <rect x="175" y="47" width="92" height="32" rx="10"/>
   <rect x="173"
         y="45"
         width="92"
         height="32"
         class="terminal"
         rx="10"/>
   <text class="terminal" x="183" y="65">No records</text>
   <rect x="175" y="91" width="162" height="32" rx="10"/>
   <rect x="173"
         y="89"
         width="162"
         height="32"
         class="terminal"
         rx="10"/>
   <text class="terminal" x="183" y="109">Invalid configuration</text>
   <a xmlns:xlink="http://www.w3.org/1999/xlink"
      xlink:href="#proc_ddns_rec"
      xlink:title="proc_ddns_rec">
      <rect x="195" y="157" width="114" height="32"/>
      <rect x="193" y="155" width="114" height="32" class="nonterminal"/>
      <text class="nonterminal" x="203" y="175">proc_ddns_rec</text>
   </a>
   <path class="line"
         d="m17 17 h2 m20 0 h10 m80 0 h10 m0 0 h10 m88 0 h10 m0 0 h10 m148 0 h10 m-396 0 h20 m376 0 h20 m-416 0 q10 0 10 10 m396 0 q0 -10 10 -10 m-406 10 v24 m396 0 v-24 m-396 24 q0 10 10 10 m376 0 q10 0 10 -10 m-386 10 h10 m84 0 h10 m20 0 h10 m92 0 h10 m0 0 h70 m-202 0 h20 m182 0 h20 m-222 0 q10 0 10 10 m202 0 q0 -10 10 -10 m-212 10 v24 m202 0 v-24 m-202 24 q0 10 10 10 m182 0 q10 0 10 -10 m-192 10 h10 m162 0 h10 m-192 -10 v20 m202 0 v-20 m-202 20 v46 m202 0 v-46 m-202 46 q0 10 10 10 m182 0 q10 0 10 -10 m-172 10 h10 m114 0 h10 m-154 0 l20 0 m-1 0 q-9 0 -9 -10 l0 -12 q0 -10 10 -10 m134 32 l20 0 m-20 0 q10 0 10 -10 l0 -12 q0 -10 -10 -10 m-134 0 h10 m0 0 h124 m20 32 h8 m20 -110 h50 m23 -44 h-3"/>
   <polygon points="445 17 453 13 453 21"/>
   <polygon points="445 17 437 13 437 21"/>
</svg>
