<?xml version="1.0" encoding="UTF-8"?>
<svg xmlns="http://www.w3.org/2000/svg" width="851" height="213">
   <defs>
      <style type="text/css">
    @namespace "http://www.w3.org/2000/svg";
    .line                 {fill: none; stroke: #332200; stroke-width: 1;}
    .bold-line            {stroke: #140E00; shape-rendering: crispEdges; stroke-width: 2;}
    .thin-line            {stroke: #1F1400; shape-rendering: crispEdges}
    .filled               {fill: #332200; stroke: none;}
    text.terminal         {font-family: Daniel Black, Sans-serif;
                            font-size: 10.5px;
                            fill: #140E00;
                            font-weight: bold;
                          }
    text.nonterminal      {font-family: Daniel Black, Sans-serif;
                            font-size: 10.5px;
                            fill: #1A1100;
                            font-weight: normal;
                          }
    text.regexp           {font-family: Daniel Black, Sans-serif;
                            font-size: 10.5px;
                            fill: #1F1400;
                            font-weight: normal;
                          }
    rect, circle, polygon {fill: #332200; stroke: #332200;}
    rect.terminal         {fill: #FFC34D; stroke: #332200; stroke-width: 1;}
    rect.nonterminal      {fill: #FFDF9E; stroke: #332200; stroke-width: 1;}
    rect.text             {fill: none; stroke: none;}
    polygon.regexp        {fill: #FFECC7; stroke: #332200; stroke-width: 1;}
  </style>
   </defs>
   <polygon points="9 17 1 13 1 21"/>
   <polygon points="17 17 9 13 9 21"/>
   <a xmlns:xlink="http://www.w3.org/1999/xlink"
      xlink:href="#handle_record"
      xlink:title="handle_record">
      <rect x="51" y="3" width="112" height="32"/>
      <rect x="49" y="1" width="112" height="32" class="nonterminal"/>
      <text class="nonterminal" x="59" y="21">handle_record</text>
   </a>
   <rect x="203" y="3" width="208" height="32" rx="10"/>
   <rect x="201"
         y="1"
         width="208"
         height="32"
         class="terminal"
         rx="10"/>
   <text class="terminal" x="211" y="21">./dnsapi/update_#name.sh</text>
   <rect x="451" y="3" width="112" height="32" rx="10"/>
   <rect x="449"
         y="1"
         width="112"
         height="32"
         class="terminal"
         rx="10"/>
   <text class="terminal" x="459" y="21">Create record</text>
   <rect x="451" y="47" width="194" height="32" rx="10"/>
   <rect x="449"
         y="45"
         width="194"
         height="32"
         class="terminal"
         rx="10"/>
   <text class="terminal" x="459" y="65">Skip (DNS cache outdate)</text>
   <rect x="451" y="91" width="116" height="32" rx="10"/>
   <rect x="449"
         y="89"
         width="116"
         height="32"
         class="terminal"
         rx="10"/>
   <text class="terminal" x="459" y="109">Update record</text>
   <rect x="203" y="135" width="158" height="32" rx="10"/>
   <rect x="201"
         y="133"
         width="158"
         height="32"
         class="terminal"
         rx="10"/>
   <text class="terminal" x="211" y="153">Record is up-to-date</text>
   <rect x="705" y="3" width="98" height="32" rx="10"/>
   <rect x="703"
         y="1"
         width="98"
         height="32"
         class="terminal"
         rx="10"/>
   <text class="terminal" x="713" y="21">Next record</text>
   <rect x="51" y="179" width="132" height="32" rx="10"/>
   <rect x="49"
         y="177"
         width="132"
         height="32"
         class="terminal"
         rx="10"/>
   <text class="terminal" x="59" y="197">No more records</text>
   <path class="line"
         d="m17 17 h2 m20 0 h10 m112 0 h10 m20 0 h10 m208 0 h10 m20 0 h10 m112 0 h10 m0 0 h82 m-234 0 h20 m214 0 h20 m-254 0 q10 0 10 10 m234 0 q0 -10 10 -10 m-244 10 v24 m234 0 v-24 m-234 24 q0 10 10 10 m214 0 q10 0 10 -10 m-224 10 h10 m194 0 h10 m-224 -10 v20 m234 0 v-20 m-234 20 v24 m234 0 v-24 m-234 24 q0 10 10 10 m214 0 q10 0 10 -10 m-224 10 h10 m116 0 h10 m0 0 h78 m-482 -88 h20 m482 0 h20 m-522 0 q10 0 10 10 m502 0 q0 -10 10 -10 m-512 10 v112 m502 0 v-112 m-502 112 q0 10 10 10 m482 0 q10 0 10 -10 m-492 10 h10 m158 0 h10 m0 0 h304 m20 -132 h10 m98 0 h10 m-792 0 h20 m772 0 h20 m-812 0 q10 0 10 10 m792 0 q0 -10 10 -10 m-802 10 v156 m792 0 v-156 m-792 156 q0 10 10 10 m772 0 q10 0 10 -10 m-782 10 h10 m132 0 h10 m0 0 h620 m23 -176 h-3"/>
   <polygon points="841 17 849 13 849 21"/>
   <polygon points="841 17 833 13 833 21"/>
</svg>
